<svg width="80" height="92" viewBox="0 0 208 239" fill="none" xmlns="http://www.w3.org/2000/svg">
<path d="M104.161 236.158C136.192 223.491 157.291 202.917 166.61 192.388C209.452 143.978 206.991 83.5873 205.176 64.3848C203.603 47.6432 199.811 34.1692 196.866 25.3748C186.256 26.9077 168.022 28.1987 146.6 22.5105C126.793 17.2661 112.431 8.22969 104.081 2.01712H103.96C95.5686 8.22969 81.2474 17.2661 61.4398 22.5105C39.9782 28.1987 21.7842 26.9481 11.1745 25.3748C8.1892 34.2095 4.43745 47.6432 2.86414 64.3848C1.04878 83.5873 -1.41204 143.978 41.4305 192.388C50.7493 202.917 71.8478 223.491 103.879 236.158H104.202H104.161Z" fill="white"/>
<path d="M104.565 238.175L103.113 238.014C70.9605 225.306 49.7006 204.813 39.8977 193.719C-1.97663 146.479 -1.41185 87.4197 0.806928 64.2234C2.05751 50.8301 4.92175 37.5578 9.23827 24.7696L9.76271 23.1559L11.4167 23.398C28.0373 25.8185 44.6983 24.8906 60.8752 20.5741C76.0435 16.54 90.1227 9.76261 102.709 0.403414L103.234 0H104.565L105.251 0.403414C117.878 9.76261 131.957 16.54 147.125 20.5741C163.302 24.8906 179.963 25.8185 196.583 23.398L198.237 23.1559L198.762 24.7696C203.078 37.5981 205.902 50.8704 207.193 64.2234C209.372 87.4197 209.977 146.479 168.143 193.759C158.34 204.853 137.04 225.347 104.928 238.054L104.565 238.216V238.175ZM12.5059 27.6338C8.59281 39.6555 6.01096 52.0807 4.80072 64.6268C2.66263 87.2987 2.05751 144.987 42.883 191.097C52.4035 201.868 72.9776 221.676 104 234.101C135.023 221.716 155.597 201.868 165.117 191.097C205.943 144.987 205.338 87.2987 203.199 64.6268C202.03 52.121 199.407 39.6959 195.494 27.6338C178.874 29.8526 162.253 28.7634 146.076 24.4872C130.867 20.4531 116.708 13.7161 104 4.47789C91.2926 13.7161 77.1328 20.4531 61.9241 24.4872C45.7472 28.8037 29.1266 29.8526 12.5059 27.6338Z" fill="black"/>
<path d="M104.121 212.115C129.576 202.07 146.318 185.732 153.741 177.341C187.789 138.895 185.812 90.8891 184.4 75.6401C183.15 62.3678 180.164 51.637 177.784 44.6579C169.353 45.8681 154.87 46.917 137.846 42.3585C122.113 38.163 110.697 31.0225 104.04 26.0605H103.919C97.263 30.9822 85.8867 38.163 70.1133 42.3585C53.0892 46.8767 38.6067 45.8681 30.1753 44.6579C27.8355 51.6773 24.8099 62.3678 23.5593 75.6401C22.107 90.8891 20.1707 138.895 54.2188 177.341C61.6416 185.691 78.3832 202.03 103.839 212.115H104.121Z" fill="white"/>
<path d="M104.524 214.132L103.113 213.971C77.4958 203.845 60.5524 187.507 52.7262 178.672C19.3639 140.993 19.848 93.955 21.5826 75.4787C22.5912 64.8286 24.8503 54.2591 28.2793 44.0528L28.8037 42.4391L30.4577 42.6812C43.609 44.6175 56.7603 43.8511 69.5889 40.4624C81.5702 37.2754 92.7044 31.91 102.709 24.4872L103.234 24.0838H104.565L105.21 24.4872C115.215 31.91 126.349 37.2754 138.331 40.4624C151.159 43.8511 164.31 44.6175 177.462 42.6812L179.116 42.4391L179.64 44.0528C183.069 54.2591 185.328 64.8689 186.337 75.4787C188.071 93.955 188.555 141.033 155.193 178.672C147.367 187.507 130.424 203.845 104.807 213.971L104.444 214.132H104.524ZM31.5873 46.8767C28.5214 56.3165 26.5446 66.0388 25.6168 75.8418C23.9224 93.7936 23.4383 139.5 55.7518 176.009C63.2956 184.521 79.5128 200.174 104 209.977C128.487 200.133 144.704 184.481 152.248 176.009C184.562 139.5 184.078 93.7936 182.383 75.8418C181.455 66.0388 179.438 56.3165 176.413 46.8767C163.261 48.571 150.151 47.7238 137.322 44.3352C125.3 41.1482 114.085 35.8231 104 28.5617C93.9147 35.8231 82.6998 41.1482 70.6781 44.3352C57.8899 47.7238 44.7386 48.571 31.5873 46.8767Z" fill="black"/>
<path d="M93.7129 149.949C93.1884 149.949 92.664 149.747 92.3009 149.344L61.5608 118.604C60.754 117.797 60.754 116.546 61.5608 115.739L75.4786 101.822C76.2854 101.015 77.536 101.015 78.3428 101.822L93.7532 117.232L129.697 81.2879C130.464 80.5214 131.795 80.5214 132.562 81.2879L146.479 95.2056C147.286 96.0125 147.286 97.2631 146.479 98.0699L95.1651 149.384C94.8021 149.747 94.2776 149.989 93.7532 149.989L93.7129 149.949ZM65.837 117.192L93.7129 145.068L142.163 96.6176L131.109 85.5641L95.1651 121.508C94.3987 122.275 93.0674 122.275 92.3009 121.508L76.8905 106.098L65.837 117.151V117.192Z" fill="black"/>
<path d="M61.6416 89.2351C61.3188 89.2351 61.0364 89.0737 60.8347 88.8316C55.308 81.3685 52.5244 77.6571 49.7812 73.9053C47.038 70.1939 44.2544 66.4422 38.7277 59.0194C38.4049 58.5756 38.4856 57.9302 38.9294 57.6074C39.3731 57.2847 40.0186 57.3654 40.3413 57.8091C45.8681 65.2723 48.6516 68.9837 51.3949 72.7354C54.1381 76.4468 56.9216 80.1986 62.4484 87.6214C62.7711 88.0651 62.6904 88.7106 62.2467 89.0333C62.0853 89.1544 61.8433 89.2351 61.6416 89.2351Z" fill="black"/>
<path d="M94.7214 91.8169C94.3987 91.8169 94.1163 91.6556 93.9146 91.4135C87.9037 83.3049 84.6764 79.3111 81.5701 75.4383C78.4235 71.5656 75.1962 67.5314 69.145 59.4228C68.8222 58.9791 68.9029 58.3336 69.3467 58.0109C69.7904 57.6881 70.4359 57.7688 70.7586 58.2126C76.7695 66.3212 79.9968 70.315 83.1031 74.1878C86.2497 78.0605 89.477 82.0947 95.5282 90.2033C95.8509 90.647 95.7703 91.2925 95.3265 91.6152C95.1651 91.7362 94.9231 91.8169 94.7214 91.8169Z" fill="black"/>
<path d="M120.177 76.0435C119.854 76.0435 119.532 75.8821 119.33 75.5997C114.126 68.0559 111.584 64.2638 109.043 60.4314C106.501 56.6393 103.96 52.8069 98.7961 45.3034C98.4734 44.8596 98.5944 44.2142 99.0382 43.8914C99.4819 43.5687 100.127 43.6897 100.45 44.1335C105.654 51.6773 108.196 55.4694 110.737 59.3018C113.279 63.0939 115.82 66.9264 120.984 74.4298C121.307 74.8736 121.186 75.5191 120.742 75.8418C120.58 75.9628 120.379 76.0032 120.177 76.0032V76.0435Z" fill="black"/>
<path d="M163.382 142.97C163.06 142.97 162.737 142.808 162.535 142.526C157.856 135.668 155.516 132.118 153.297 128.729C151.078 125.341 148.779 121.791 144.099 114.973C143.777 114.529 143.898 113.884 144.341 113.561C144.785 113.238 145.431 113.359 145.753 113.803C150.433 120.661 152.732 124.171 154.991 127.6C157.21 131.029 159.51 134.538 164.189 141.356C164.512 141.8 164.391 142.445 163.947 142.768C163.786 142.889 163.584 142.929 163.382 142.929V142.97Z" fill="black"/>
<path d="M151.199 164.875C150.877 164.875 150.554 164.714 150.352 164.431C144.826 156.323 141.84 152.329 138.976 148.456C136.071 144.583 133.086 140.549 127.519 132.4C127.196 131.957 127.317 131.311 127.761 130.988C128.205 130.666 128.85 130.787 129.173 131.23C134.7 139.339 137.685 143.333 140.549 147.206C143.454 151.078 146.439 155.112 152.006 163.261C152.329 163.705 152.208 164.351 151.764 164.673C151.603 164.794 151.401 164.835 151.199 164.835V164.875Z" fill="black"/>
<path d="M172.379 100.006C172.056 100.006 171.773 99.8449 171.572 99.6029C164.673 90.3243 161.164 85.7254 157.654 81.1265C154.185 76.6083 150.594 71.8883 143.655 62.5695C143.333 62.1257 143.413 61.4803 143.857 61.1575C144.301 60.8348 144.946 60.9155 145.269 61.3593C152.208 70.6781 155.798 75.398 159.268 79.9163C162.777 84.5152 166.327 89.1141 173.226 98.3926C173.548 98.8364 173.468 99.4818 173.024 99.8046C172.863 99.9256 172.621 100.006 172.419 100.006H172.379Z" fill="black"/>
<path d="M131.271 187.829C130.948 187.829 130.666 187.668 130.464 187.426C123.565 178.107 120.177 173.428 116.748 168.748C113.359 164.028 109.93 159.348 103.032 150.03C102.709 149.586 102.79 148.94 103.233 148.618C103.677 148.295 104.323 148.376 104.645 148.819C111.584 158.138 114.973 162.858 118.402 167.578C121.79 172.258 125.179 176.978 132.078 186.256C132.4 186.7 132.32 187.345 131.876 187.668C131.714 187.789 131.472 187.87 131.271 187.87V187.829Z" fill="black"/>
<path d="M89.4368 182.343C89.1141 182.343 88.8317 182.182 88.63 181.939C81.5299 172.379 78.0606 167.457 74.6719 162.656C71.3236 157.896 67.8542 152.934 60.7945 143.454C53.7347 133.933 50.1444 129.173 46.554 124.453C42.9636 119.693 39.4136 114.973 32.3135 105.412C31.9908 104.968 32.0714 104.323 32.5152 104C32.959 103.677 33.6044 103.758 33.9271 104.202C40.9869 113.722 44.5773 118.483 48.1676 123.202C51.758 127.963 55.3081 132.683 62.4081 142.244C69.5082 151.764 72.9776 156.726 76.3259 161.486C79.6742 166.247 83.1436 171.209 90.2437 180.729C90.5664 181.173 90.4857 181.818 90.042 182.141C89.8806 182.262 89.6385 182.343 89.4368 182.343Z" fill="black"/>
</svg>
