<svg width="127" height="29" viewBox="0 0 127 29" fill="none" xmlns="http://www.w3.org/2000/svg">
<rect y="0.72966" width="127" height="28" rx="7" fill="url(#paint0_radial_4003_3)"/>
<path d="M12.056 20.8897C11.4053 20.8897 10.808 20.8097 10.264 20.6497C9.72 20.479 9.22933 20.2283 8.792 19.8977C8.35467 19.567 7.96533 19.167 7.624 18.6977L8.984 17.1617C9.50667 17.887 10.0187 18.3883 10.52 18.6657C11.0213 18.943 11.5867 19.0817 12.216 19.0817C12.5787 19.0817 12.9093 19.0283 13.208 18.9217C13.5067 18.8043 13.7413 18.6497 13.912 18.4577C14.0827 18.255 14.168 18.0257 14.168 17.7697C14.168 17.5883 14.1307 17.423 14.056 17.2737C13.992 17.1137 13.8907 16.975 13.752 16.8577C13.6133 16.7297 13.4427 16.6123 13.24 16.5057C13.0373 16.399 12.808 16.3083 12.552 16.2337C12.296 16.159 12.0133 16.0897 11.704 16.0257C11.1173 15.9083 10.6053 15.7537 10.168 15.5617C9.73067 15.359 9.36267 15.1137 9.064 14.8257C8.76533 14.527 8.54667 14.1963 8.408 13.8337C8.26933 13.4603 8.2 13.039 8.2 12.5697C8.2 12.1003 8.30133 11.6683 8.504 11.2737C8.71733 10.879 9.00533 10.5377 9.368 10.2497C9.73067 9.96166 10.152 9.73766 10.632 9.57766C11.112 9.41766 11.6293 9.33766 12.184 9.33766C12.8133 9.33766 13.3733 9.41233 13.864 9.56166C14.3653 9.71099 14.8027 9.93499 15.176 10.2337C15.56 10.5217 15.8747 10.8737 16.12 11.2897L14.744 12.6497C14.5307 12.319 14.2907 12.047 14.024 11.8337C13.7573 11.6097 13.4693 11.4443 13.16 11.3377C12.8507 11.2203 12.5253 11.1617 12.184 11.1617C11.8 11.1617 11.464 11.215 11.176 11.3217C10.8987 11.4283 10.68 11.583 10.52 11.7857C10.36 11.9777 10.28 12.2123 10.28 12.4897C10.28 12.703 10.328 12.895 10.424 13.0657C10.52 13.2257 10.6533 13.3697 10.824 13.4977C11.0053 13.6257 11.2347 13.7377 11.512 13.8337C11.7893 13.9297 12.104 14.015 12.456 14.0897C13.0427 14.207 13.5707 14.367 14.04 14.5697C14.5093 14.7617 14.9093 14.9963 15.24 15.2737C15.5707 15.5403 15.8213 15.8497 15.992 16.2017C16.1627 16.543 16.248 16.927 16.248 17.3537C16.248 18.0897 16.072 18.7243 15.72 19.2577C15.3787 19.7803 14.8933 20.1857 14.264 20.4737C13.6347 20.751 12.8987 20.8897 12.056 20.8897ZM22.1353 20.8897C21.2499 20.8897 20.4659 20.703 19.7833 20.3297C19.1113 19.9563 18.5833 19.4497 18.1993 18.8097C17.8259 18.159 17.6393 17.4177 17.6393 16.5857C17.6393 15.9243 17.7459 15.3217 17.9593 14.7777C18.1726 14.2337 18.4659 13.7643 18.8393 13.3697C19.2233 12.9643 19.6766 12.655 20.1993 12.4417C20.7326 12.2177 21.3139 12.1057 21.9433 12.1057C22.4979 12.1057 23.0153 12.2123 23.4953 12.4257C23.9753 12.639 24.3913 12.9323 24.7433 13.3057C25.0953 13.6683 25.3619 14.1057 25.5433 14.6177C25.7353 15.119 25.8259 15.6683 25.8153 16.2657L25.7993 16.9537H18.9673L18.5993 15.6097H24.1513L23.8953 15.8817V15.5297C23.8633 15.199 23.7566 14.911 23.5753 14.6657C23.3939 14.4097 23.1593 14.2123 22.8713 14.0737C22.5939 13.9243 22.2846 13.8497 21.9433 13.8497C21.4206 13.8497 20.9779 13.951 20.6153 14.1537C20.2633 14.3563 19.9966 14.6497 19.8153 15.0337C19.6339 15.407 19.5433 15.8763 19.5433 16.4417C19.5433 16.9857 19.6553 17.4603 19.8793 17.8657C20.1139 18.271 20.4393 18.5857 20.8553 18.8097C21.2819 19.023 21.7779 19.1297 22.3433 19.1297C22.7379 19.1297 23.1006 19.0657 23.4313 18.9377C23.7619 18.8097 24.1193 18.5803 24.5033 18.2497L25.4792 19.6097C25.1913 19.8763 24.8606 20.1057 24.4873 20.2977C24.1246 20.479 23.7406 20.623 23.3353 20.7297C22.9299 20.8363 22.5299 20.8897 22.1353 20.8897ZM30.7423 20.8897C30.0489 20.8897 29.4196 20.6977 28.8543 20.3137C28.2889 19.9297 27.8356 19.407 27.4943 18.7457C27.1529 18.0843 26.9823 17.3323 26.9823 16.4897C26.9823 15.647 27.1529 14.895 27.4943 14.2337C27.8356 13.5723 28.2996 13.055 28.8863 12.6817C29.4729 12.3083 30.1343 12.1217 30.8703 12.1217C31.2969 12.1217 31.6863 12.1857 32.0383 12.3137C32.3903 12.431 32.6996 12.6017 32.9663 12.8257C33.2329 13.0497 33.4516 13.3057 33.6223 13.5937C33.8036 13.8817 33.9263 14.191 33.9903 14.5217L33.5583 14.4097V12.2977H35.5423V20.7297H33.5423V18.7137L34.0063 18.6337C33.9316 18.9217 33.7929 19.2043 33.5903 19.4817C33.3983 19.7483 33.1529 19.9883 32.8543 20.2017C32.5663 20.4043 32.2409 20.5697 31.8783 20.6977C31.5263 20.8257 31.1476 20.8897 30.7423 20.8897ZM31.2863 19.1457C31.7449 19.1457 32.1503 19.0337 32.5023 18.8097C32.8543 18.5857 33.1263 18.2763 33.3183 17.8817C33.5209 17.4763 33.6223 17.0123 33.6223 16.4897C33.6223 15.9777 33.5209 15.5243 33.3183 15.1297C33.1263 14.735 32.8543 14.4257 32.5023 14.2017C32.1503 13.9777 31.7449 13.8657 31.2863 13.8657C30.8276 13.8657 30.4223 13.9777 30.0703 14.2017C29.7289 14.4257 29.4623 14.735 29.2703 15.1297C29.0783 15.5243 28.9823 15.9777 28.9823 16.4897C28.9823 17.0123 29.0783 17.4763 29.2703 17.8817C29.4623 18.2763 29.7289 18.5857 30.0703 18.8097C30.4223 19.0337 30.8276 19.1457 31.2863 19.1457ZM37.8239 20.7297V12.2977H39.7599L39.7919 14.9857L39.5199 14.3777C39.6372 13.951 39.8399 13.567 40.1279 13.2257C40.4159 12.8843 40.7465 12.6177 41.1199 12.4257C41.5039 12.223 41.9039 12.1217 42.3199 12.1217C42.5012 12.1217 42.6719 12.1377 42.8319 12.1697C43.0025 12.2017 43.1412 12.239 43.2479 12.2817L42.7199 14.4417C42.6025 14.3777 42.4585 14.3243 42.2879 14.2817C42.1172 14.239 41.9465 14.2177 41.7759 14.2177C41.5092 14.2177 41.2532 14.271 41.0079 14.3777C40.7732 14.4737 40.5652 14.6123 40.3839 14.7937C40.2025 14.975 40.0585 15.1883 39.9519 15.4337C39.8559 15.6683 39.8079 15.935 39.8079 16.2337V20.7297H37.8239ZM47.8149 20.8897C47.0255 20.8897 46.3162 20.6977 45.6869 20.3137C45.0575 19.9297 44.5615 19.407 44.1989 18.7457C43.8362 18.0843 43.6549 17.3377 43.6549 16.5057C43.6549 15.6737 43.8362 14.927 44.1989 14.2657C44.5615 13.6043 45.0575 13.0817 45.6869 12.6977C46.3162 12.3137 47.0255 12.1217 47.8149 12.1217C48.5722 12.1217 49.2602 12.2657 49.8789 12.5537C50.4975 12.8417 50.9775 13.2417 51.3189 13.7537L50.2309 15.0657C50.0709 14.8417 49.8682 14.639 49.6229 14.4577C49.3775 14.2763 49.1162 14.1323 48.8389 14.0257C48.5615 13.919 48.2842 13.8657 48.0069 13.8657C47.5375 13.8657 47.1162 13.983 46.7429 14.2177C46.3802 14.4417 46.0922 14.7563 45.8789 15.1617C45.6655 15.5563 45.5589 16.0043 45.5589 16.5057C45.5589 17.007 45.6655 17.455 45.8789 17.8497C46.1029 18.2443 46.4015 18.559 46.7749 18.7937C47.1482 19.0283 47.5642 19.1457 48.0229 19.1457C48.3002 19.1457 48.5669 19.103 48.8229 19.0177C49.0895 18.9217 49.3402 18.7883 49.5749 18.6177C49.8095 18.447 50.0282 18.2337 50.2309 17.9777L51.3189 19.3057C50.9562 19.775 50.4549 20.159 49.8149 20.4577C49.1855 20.7457 48.5189 20.8897 47.8149 20.8897ZM52.8239 20.7297V8.88966H54.7759V14.0257L54.4079 14.2177C54.5145 13.8337 54.7225 13.487 55.0319 13.1777C55.3412 12.8577 55.7092 12.6017 56.1359 12.4097C56.5625 12.2177 56.9999 12.1217 57.4479 12.1217C58.0879 12.1217 58.6212 12.2497 59.0479 12.5057C59.4852 12.7617 59.8105 13.1457 60.0239 13.6577C60.2479 14.1697 60.3599 14.8097 60.3599 15.5777V20.7297H58.3919V15.7217C58.3919 15.295 58.3332 14.943 58.2159 14.6657C58.0985 14.3777 57.9172 14.1697 57.6719 14.0417C57.4265 13.903 57.1279 13.839 56.7759 13.8497C56.4879 13.8497 56.2212 13.8977 55.9759 13.9937C55.7412 14.079 55.5332 14.207 55.3519 14.3777C55.1812 14.5377 55.0425 14.7243 54.9359 14.9377C54.8399 15.151 54.7919 15.3857 54.7919 15.6417V20.7297H53.8159C53.6239 20.7297 53.4425 20.7297 53.2719 20.7297C53.1119 20.7297 52.9625 20.7297 52.8239 20.7297ZM71.181 20.8897C70.5303 20.8897 69.933 20.8097 69.389 20.6497C68.845 20.479 68.3543 20.2283 67.917 19.8977C67.4797 19.567 67.0903 19.167 66.749 18.6977L68.109 17.1617C68.6317 17.887 69.1437 18.3883 69.645 18.6657C70.1463 18.943 70.7117 19.0817 71.341 19.0817C71.7037 19.0817 72.0343 19.0283 72.333 18.9217C72.6317 18.8043 72.8663 18.6497 73.037 18.4577C73.2077 18.255 73.293 18.0257 73.293 17.7697C73.293 17.5883 73.2557 17.423 73.181 17.2737C73.117 17.1137 73.0157 16.975 72.877 16.8577C72.7383 16.7297 72.5677 16.6123 72.365 16.5057C72.1623 16.399 71.933 16.3083 71.677 16.2337C71.421 16.159 71.1383 16.0897 70.829 16.0257C70.2423 15.9083 69.7303 15.7537 69.293 15.5617C68.8557 15.359 68.4877 15.1137 68.189 14.8257C67.8903 14.527 67.6717 14.1963 67.533 13.8337C67.3943 13.4603 67.325 13.039 67.325 12.5697C67.325 12.1003 67.4263 11.6683 67.629 11.2737C67.8423 10.879 68.1303 10.5377 68.493 10.2497C68.8557 9.96166 69.277 9.73766 69.757 9.57766C70.237 9.41766 70.7543 9.33766 71.309 9.33766C71.9383 9.33766 72.4983 9.41233 72.989 9.56166C73.4903 9.71099 73.9277 9.93499 74.301 10.2337C74.685 10.5217 74.9997 10.8737 75.245 11.2897L73.869 12.6497C73.6557 12.319 73.4157 12.047 73.149 11.8337C72.8823 11.6097 72.5943 11.4443 72.285 11.3377C71.9757 11.2203 71.6503 11.1617 71.309 11.1617C70.925 11.1617 70.589 11.215 70.301 11.3217C70.0237 11.4283 69.805 11.583 69.645 11.7857C69.485 11.9777 69.405 12.2123 69.405 12.4897C69.405 12.703 69.453 12.895 69.549 13.0657C69.645 13.2257 69.7783 13.3697 69.949 13.4977C70.1303 13.6257 70.3597 13.7377 70.637 13.8337C70.9143 13.9297 71.229 14.015 71.581 14.0897C72.1677 14.207 72.6957 14.367 73.165 14.5697C73.6343 14.7617 74.0343 14.9963 74.365 15.2737C74.6957 15.5403 74.9463 15.8497 75.117 16.2017C75.2877 16.543 75.373 16.927 75.373 17.3537C75.373 18.0897 75.197 18.7243 74.845 19.2577C74.5037 19.7803 74.0183 20.1857 73.389 20.4737C72.7597 20.751 72.0237 20.8897 71.181 20.8897ZM80.9243 20.8897C80.1349 20.8897 79.4256 20.6977 78.7963 20.3137C78.1669 19.9297 77.6709 19.407 77.3083 18.7457C76.9456 18.0843 76.7643 17.3377 76.7643 16.5057C76.7643 15.6737 76.9456 14.927 77.3083 14.2657C77.6709 13.6043 78.1669 13.0817 78.7963 12.6977C79.4256 12.3137 80.1349 12.1217 80.9243 12.1217C81.6816 12.1217 82.3696 12.2657 82.9883 12.5537C83.6069 12.8417 84.0869 13.2417 84.4283 13.7537L83.3403 15.0657C83.1803 14.8417 82.9776 14.639 82.7323 14.4577C82.4869 14.2763 82.2256 14.1323 81.9483 14.0257C81.6709 13.919 81.3936 13.8657 81.1163 13.8657C80.6469 13.8657 80.2256 13.983 79.8523 14.2177C79.4896 14.4417 79.2016 14.7563 78.9883 15.1617C78.7749 15.5563 78.6683 16.0043 78.6683 16.5057C78.6683 17.007 78.7749 17.455 78.9883 17.8497C79.2123 18.2443 79.5109 18.559 79.8843 18.7937C80.2576 19.0283 80.6736 19.1457 81.1323 19.1457C81.4096 19.1457 81.6763 19.103 81.9323 19.0177C82.1989 18.9217 82.4496 18.7883 82.6843 18.6177C82.9189 18.447 83.1376 18.2337 83.3403 17.9777L84.4283 19.3057C84.0656 19.775 83.5643 20.159 82.9243 20.4577C82.2949 20.7457 81.6283 20.8897 80.9243 20.8897ZM85.9333 20.7297V12.2977H87.8693L87.9013 14.9857L87.6293 14.3777C87.7466 13.951 87.9493 13.567 88.2373 13.2257C88.5253 12.8843 88.8559 12.6177 89.2293 12.4257C89.6133 12.223 90.0133 12.1217 90.4293 12.1217C90.6106 12.1217 90.7813 12.1377 90.9413 12.1697C91.1119 12.2017 91.2506 12.239 91.3573 12.2817L90.8293 14.4417C90.7119 14.3777 90.5679 14.3243 90.3973 14.2817C90.2266 14.239 90.0559 14.2177 89.8853 14.2177C89.6186 14.2177 89.3626 14.271 89.1173 14.3777C88.8826 14.4737 88.6746 14.6123 88.4933 14.7937C88.3119 14.975 88.1679 15.1883 88.0613 15.4337C87.9653 15.6683 87.9173 15.935 87.9173 16.2337V20.7297H85.9333ZM96.2603 20.8897C95.3749 20.8897 94.5909 20.703 93.9083 20.3297C93.2363 19.9563 92.7083 19.4497 92.3243 18.8097C91.9509 18.159 91.7643 17.4177 91.7643 16.5857C91.7643 15.9243 91.8709 15.3217 92.0843 14.7777C92.2976 14.2337 92.5909 13.7643 92.9643 13.3697C93.3483 12.9643 93.8016 12.655 94.3243 12.4417C94.8576 12.2177 95.4389 12.1057 96.0683 12.1057C96.6229 12.1057 97.1403 12.2123 97.6203 12.4257C98.1003 12.639 98.5163 12.9323 98.8683 13.3057C99.2203 13.6683 99.4869 14.1057 99.6683 14.6177C99.8603 15.119 99.9509 15.6683 99.9403 16.2657L99.9243 16.9537H93.0923L92.7243 15.6097H98.2763L98.0203 15.8817V15.5297C97.9883 15.199 97.8816 14.911 97.7003 14.6657C97.5189 14.4097 97.2843 14.2123 96.9963 14.0737C96.7189 13.9243 96.4096 13.8497 96.0683 13.8497C95.5456 13.8497 95.1029 13.951 94.7403 14.1537C94.3883 14.3563 94.1216 14.6497 93.9403 15.0337C93.7589 15.407 93.6683 15.8763 93.6683 16.4417C93.6683 16.9857 93.7803 17.4603 94.0043 17.8657C94.2389 18.271 94.5643 18.5857 94.9803 18.8097C95.4069 19.023 95.9029 19.1297 96.4683 19.1297C96.8629 19.1297 97.2256 19.0657 97.5563 18.9377C97.8869 18.8097 98.2443 18.5803 98.6283 18.2497L99.6042 19.6097C99.3163 19.8763 98.9856 20.1057 98.6123 20.2977C98.2496 20.479 97.8656 20.623 97.4603 20.7297C97.0549 20.8363 96.6549 20.8897 96.2603 20.8897ZM105.635 20.8897C104.75 20.8897 103.966 20.703 103.283 20.3297C102.611 19.9563 102.083 19.4497 101.699 18.8097C101.326 18.159 101.139 17.4177 101.139 16.5857C101.139 15.9243 101.246 15.3217 101.459 14.7777C101.673 14.2337 101.966 13.7643 102.339 13.3697C102.723 12.9643 103.177 12.655 103.699 12.4417C104.233 12.2177 104.814 12.1057 105.443 12.1057C105.998 12.1057 106.515 12.2123 106.995 12.4257C107.475 12.639 107.891 12.9323 108.243 13.3057C108.595 13.6683 108.862 14.1057 109.043 14.6177C109.235 15.119 109.326 15.6683 109.315 16.2657L109.299 16.9537H102.467L102.099 15.6097H107.651L107.395 15.8817V15.5297C107.363 15.199 107.257 14.911 107.075 14.6657C106.894 14.4097 106.659 14.2123 106.371 14.0737C106.094 13.9243 105.785 13.8497 105.443 13.8497C104.921 13.8497 104.478 13.951 104.115 14.1537C103.763 14.3563 103.497 14.6497 103.315 15.0337C103.134 15.407 103.043 15.8763 103.043 16.4417C103.043 16.9857 103.155 17.4603 103.379 17.8657C103.614 18.271 103.939 18.5857 104.355 18.8097C104.782 19.023 105.278 19.1297 105.843 19.1297C106.238 19.1297 106.601 19.0657 106.931 18.9377C107.262 18.8097 107.619 18.5803 108.003 18.2497L108.979 19.6097C108.691 19.8763 108.361 20.1057 107.987 20.2977C107.625 20.479 107.241 20.623 106.835 20.7297C106.43 20.8363 106.03 20.8897 105.635 20.8897ZM111.058 20.7297V12.2977H112.978L113.01 14.0257L112.642 14.2177C112.749 13.8337 112.957 13.487 113.266 13.1777C113.576 12.8577 113.944 12.6017 114.37 12.4097C114.797 12.2177 115.234 12.1217 115.682 12.1217C116.322 12.1217 116.856 12.2497 117.282 12.5057C117.72 12.7617 118.045 13.1457 118.258 13.6577C118.482 14.1697 118.594 14.8097 118.594 15.5777V20.7297H116.626V15.7217C116.626 15.295 116.568 14.943 116.45 14.6657C116.333 14.3777 116.152 14.1697 115.906 14.0417C115.661 13.903 115.362 13.839 115.01 13.8497C114.722 13.8497 114.456 13.8977 114.21 13.9937C113.976 14.079 113.768 14.207 113.586 14.3777C113.416 14.5377 113.277 14.7243 113.17 14.9377C113.074 15.151 113.026 15.3857 113.026 15.6417V20.7297H112.05C111.858 20.7297 111.677 20.7297 111.506 20.7297C111.346 20.7297 111.197 20.7297 111.058 20.7297Z" fill="white"/>
<defs>
<radialGradient id="paint0_radial_4003_3" cx="0" cy="0" r="1" gradientUnits="userSpaceOnUse" gradientTransform="translate(63.1872 -4.30504) scale(71.3403 20.463)">
<stop stop-color="#FBC610"/>
<stop offset="1" stop-color="#F57211"/>
</radialGradient>
</defs>
</svg>
