<svg width="31" height="31" viewBox="0 0 31 31" fill="none" xmlns="http://www.w3.org/2000/svg">
<path fill-rule="evenodd" clip-rule="evenodd" d="M9.68751 9.52604C9.68751 8.18848 10.7718 7.10417 12.1094 7.10417C13.4469 7.10417 14.5313 8.18848 14.5313 9.52604V21.474C14.5313 23.8816 16.483 25.8333 18.8906 25.8333C21.2983 25.8333 23.25 23.8816 23.25 21.474V15.2555L24.8254 16.8308L26.1954 15.4609L22.2813 11.5466L18.3671 15.4609L19.7371 16.8308L21.3125 15.2555V21.474C21.3125 22.8115 20.2282 23.8958 18.8906 23.8958C17.5531 23.8958 16.4688 22.8115 16.4688 21.474V9.52604C16.4688 7.11843 14.517 5.16667 12.1094 5.16667C9.70177 5.16667 7.75001 7.11843 7.75001 9.52604V12.2708H5.16667V19.375H12.2708V12.2708H9.68751V9.52604ZM7.10417 14.2083V17.4375H10.3333V14.2083H7.10417Z" fill="#E63D19"/>
</svg>
