<svg width="92" height="106" viewBox="0 0 92 106" fill="none" xmlns="http://www.w3.org/2000/svg">
<g clip-path="url(#clip0_2001_2)">
<mask id="mask0_2001_2" style="mask-type:luminance" maskUnits="userSpaceOnUse" x="0" y="0" width="92" height="106">
<path d="M45.8651 0L68.7979 13.25L91.7302 26.4994V53V79.4994L68.7979 92.7494L45.8651 105.999L22.9323 92.7494L0 79.4994V53V26.4994L22.9323 13.25L45.8651 0Z" fill="white"/>
</mask>
<g mask="url(#mask0_2001_2)">
<path d="M91.7308 0H0V106H91.7308V0Z" fill="url(#paint0_linear_2001_2)"/>
</g>
<path fill-rule="evenodd" clip-rule="evenodd" d="M71.561 91.1531L68.7979 92.7517L67.7967 93.3306L58.756 84.2833C54.3945 86.6137 49.5252 87.8294 44.5809 87.8222C27.9349 87.8222 14.4403 74.3183 14.4403 57.6595C14.4364 54.1278 15.0535 50.623 16.2634 47.3053C15.9047 49.183 15.7243 51.0905 15.7244 53.0023C15.7244 69.6605 29.2191 83.1644 45.8651 83.1644C50.8091 83.1713 55.6782 81.9557 60.0396 79.6255L71.561 91.1531Z" fill="#BA1C58"/>
<path d="M68.7092 72.6755C73.426 67.2081 76.0164 60.2231 76.0058 53C76.0058 36.3412 62.5111 22.8373 45.8651 22.8373C29.2191 22.8373 15.7244 36.3412 15.7244 53C15.7244 69.6588 29.2191 83.1621 45.8651 83.1621C50.8089 83.1697 55.678 81.9549 60.0396 79.6255L71.561 91.1548L81.4592 85.436L68.7092 72.6755Z" fill="white"/>
<mask id="mask1_2001_2" style="mask-type:luminance" maskUnits="userSpaceOnUse" x="26" y="33" width="39" height="40">
<path d="M45.8651 33.8845C56.4145 33.8845 64.9661 42.4423 64.9661 52.9994C64.9661 63.5565 56.4145 72.1167 45.8651 72.1167C35.3157 72.1167 26.7641 63.5588 26.7641 53.0023C26.7641 42.4457 35.3157 33.8845 45.8651 33.8845Z" fill="white"/>
</mask>
<g mask="url(#mask1_2001_2)">
<path d="M64.9664 33.8854H26.7651V72.1153H64.9664V33.8854Z" fill="url(#paint1_linear_2001_2)"/>
</g>
<path fill-rule="evenodd" clip-rule="evenodd" d="M45.8651 44.6715C47.511 44.6715 49.12 45.1599 50.4885 46.075C51.857 46.9901 52.9237 48.2907 53.5535 49.8124C54.1834 51.3342 54.3482 53.0087 54.0271 54.6241C53.706 56.2396 52.9134 57.7235 51.7496 58.8882C50.5857 60.0529 49.1029 60.846 47.4886 61.1674C45.8743 61.4887 44.2011 61.3238 42.6805 60.6935C41.1598 60.0631 39.8601 58.9957 38.9457 57.6262C38.0313 56.2567 37.5432 54.6465 37.5432 52.9994C37.5432 50.7907 38.42 48.6725 39.9807 47.1107C41.5413 45.5489 43.658 44.6715 45.8651 44.6715Z" fill="white"/>
</g>
<defs>
<linearGradient id="paint0_linear_2001_2" x1="45.561" y1="118.817" x2="46.2109" y2="-21.5493" gradientUnits="userSpaceOnUse">
<stop stop-color="#EE3437"/>
<stop offset="0.99" stop-color="#FFFD00"/>
<stop offset="1" stop-color="#FFFF00"/>
</linearGradient>
<linearGradient id="paint1_linear_2001_2" x1="45.5447" y1="122.377" x2="46.1946" y2="-17.9894" gradientUnits="userSpaceOnUse">
<stop stop-color="#ED1E29"/>
<stop offset="1" stop-color="#FFFF00"/>
</linearGradient>
<clipPath id="clip0_2001_2">
<rect width="91.6514" height="105.908" fill="white" transform="scale(1.00087)"/>
</clipPath>
</defs>
</svg>
