<svg width="127" height="22" viewBox="0 0 127 22" fill="none" xmlns="http://www.w3.org/2000/svg">
<rect width="127" height="22" rx="7" fill="#FEE8CF"/>
<path d="M12.823 15.11C12.273 15.11 11.767 15.0147 11.305 14.824C10.843 14.626 10.4433 14.351 10.106 13.999C9.76867 13.6397 9.50467 13.218 9.314 12.734C9.13067 12.25 9.039 11.722 9.039 11.15C9.039 10.5853 9.13067 10.0683 9.314 9.599C9.50467 9.12233 9.77233 8.708 10.117 8.356C10.4617 7.99667 10.8613 7.72167 11.316 7.531C11.7707 7.34033 12.2693 7.245 12.812 7.245C13.1713 7.245 13.527 7.30367 13.879 7.421C14.231 7.531 14.5537 7.685 14.847 7.883C15.1477 8.081 15.3933 8.30833 15.584 8.565L14.99 9.181C14.8067 8.961 14.594 8.77033 14.352 8.609C14.1173 8.44767 13.868 8.323 13.604 8.235C13.34 8.147 13.076 8.103 12.812 8.103C12.4013 8.103 12.0163 8.18 11.657 8.334C11.305 8.48067 11.0007 8.68967 10.744 8.961C10.4873 9.23233 10.2857 9.555 10.139 9.929C9.99967 10.303 9.93 10.71 9.93 11.15C9.93 11.6047 9.99967 12.0227 10.139 12.404C10.2857 12.7853 10.491 13.1153 10.755 13.394C11.0263 13.6653 11.3417 13.878 11.701 14.032C12.0677 14.1787 12.4747 14.252 12.922 14.252C13.186 14.252 13.45 14.2153 13.714 14.142C13.978 14.0613 14.22 13.9513 14.44 13.812C14.66 13.6727 14.847 13.515 15.001 13.339L15.441 14.054C15.2723 14.2593 15.045 14.4427 14.759 14.604C14.4803 14.758 14.1723 14.8827 13.835 14.978C13.4977 15.066 13.1603 15.11 12.823 15.11ZM19.6076 15.11C19.0356 15.11 18.5259 14.9817 18.0786 14.725C17.6386 14.4683 17.2903 14.1127 17.0336 13.658C16.7843 13.2033 16.6596 12.6863 16.6596 12.107C16.6596 11.535 16.7843 11.0253 17.0336 10.578C17.2903 10.1307 17.6386 9.77867 18.0786 9.522C18.5259 9.26533 19.0356 9.137 19.6076 9.137C20.1723 9.137 20.6746 9.26533 21.1146 9.522C21.5619 9.77867 21.9103 10.1307 22.1596 10.578C22.4163 11.0253 22.5446 11.535 22.5446 12.107C22.5446 12.6863 22.4163 13.2033 22.1596 13.658C21.9103 14.1127 21.5619 14.4683 21.1146 14.725C20.6746 14.9817 20.1723 15.11 19.6076 15.11ZM19.6076 14.329C20.0109 14.329 20.3703 14.2337 20.6856 14.043C21.0009 13.845 21.2466 13.581 21.4226 13.251C21.5986 12.9137 21.6866 12.5323 21.6866 12.107C21.6866 11.6817 21.5986 11.304 21.4226 10.974C21.2466 10.644 21.0009 10.3873 20.6856 10.204C20.3703 10.0133 20.0109 9.918 19.6076 9.918C19.2043 9.918 18.8413 10.0133 18.5186 10.204C18.2033 10.3873 17.9539 10.6477 17.7706 10.985C17.5946 11.315 17.5103 11.689 17.5176 12.107C17.5103 12.5323 17.5946 12.9137 17.7706 13.251C17.9539 13.581 18.2033 13.845 18.5186 14.043C18.8413 14.2337 19.2043 14.329 19.6076 14.329ZM24.0782 15V9.258H24.8922L24.9252 10.457L24.7932 10.512C24.8666 10.2627 25.0096 10.0353 25.2222 9.83C25.4349 9.62467 25.6879 9.45967 25.9812 9.335C26.2819 9.203 26.5899 9.137 26.9052 9.137C27.3306 9.137 27.6862 9.22133 27.9722 9.39C28.2582 9.55867 28.4746 9.819 28.6212 10.171C28.7679 10.523 28.8412 10.9703 28.8412 11.513V15H28.0052V11.557C28.0052 11.1757 27.9539 10.864 27.8512 10.622C27.7559 10.3727 27.6056 10.1893 27.4002 10.072C27.1949 9.95467 26.9419 9.89967 26.6412 9.907C26.3919 9.907 26.1609 9.951 25.9482 10.039C25.7356 10.1197 25.5522 10.2333 25.3982 10.38C25.2442 10.5267 25.1232 10.6953 25.0352 10.886C24.9472 11.0767 24.9032 11.282 24.9032 11.502V15H24.4962C24.4449 15 24.3862 15 24.3202 15C24.2542 15 24.1736 15 24.0782 15ZM31.4061 15V8.367C31.4061 8.081 31.4685 7.828 31.5931 7.608C31.7178 7.388 31.8938 7.21567 32.1211 7.091C32.3558 6.959 32.6271 6.893 32.9351 6.893C33.1698 6.893 33.3788 6.937 33.5621 7.025C33.7528 7.10567 33.9105 7.21933 34.0351 7.366L33.7491 8.015C33.6318 7.89033 33.5035 7.80233 33.3641 7.751C33.2321 7.69233 33.1038 7.663 32.9791 7.663C32.8178 7.663 32.6821 7.69233 32.5721 7.751C32.4621 7.80233 32.3778 7.883 32.3191 7.993C32.2678 8.09567 32.2421 8.22033 32.2421 8.367V15H31.8571C31.7765 15 31.6995 15 31.6261 15C31.5528 15 31.4795 15 31.4061 15ZM30.3831 10.072V9.302H33.7051V10.072H30.3831ZM35.1241 15V9.258H35.9491V15H35.1241ZM35.5311 8.015C35.3258 8.015 35.1681 7.96367 35.0581 7.861C34.9555 7.751 34.9041 7.60433 34.9041 7.421C34.9041 7.23767 34.9591 7.091 35.0691 6.981C35.1791 6.871 35.3331 6.816 35.5311 6.816C35.7291 6.816 35.8831 6.871 35.9931 6.981C36.1031 7.08367 36.1581 7.23033 36.1581 7.421C36.1581 7.597 36.1031 7.74 35.9931 7.85C35.8831 7.96 35.7291 8.015 35.5311 8.015ZM40.555 17.53C40.1297 17.53 39.7264 17.464 39.345 17.332C38.9637 17.2 38.6484 17.035 38.399 16.837L38.729 16.144C38.8757 16.2613 39.0444 16.364 39.235 16.452C39.433 16.5473 39.6457 16.6207 39.873 16.672C40.1004 16.7307 40.3314 16.76 40.566 16.76C40.9914 16.76 41.3507 16.6793 41.644 16.518C41.9447 16.364 42.172 16.133 42.326 15.825C42.4874 15.517 42.568 15.1357 42.568 14.681V13.581L42.7 13.548C42.634 13.8267 42.491 14.087 42.271 14.329C42.051 14.5637 41.7834 14.7543 41.468 14.901C41.1527 15.0403 40.819 15.11 40.467 15.11C39.9317 15.11 39.4514 14.9817 39.026 14.725C38.608 14.4683 38.278 14.1163 38.036 13.669C37.794 13.2143 37.673 12.701 37.673 12.129C37.673 11.5497 37.794 11.0363 38.036 10.589C38.2854 10.1343 38.619 9.77867 39.037 9.522C39.455 9.26533 39.9244 9.137 40.445 9.137C40.6724 9.137 40.8924 9.16633 41.105 9.225C41.3177 9.27633 41.512 9.35333 41.688 9.456C41.8714 9.55867 42.0364 9.676 42.183 9.808C42.3297 9.94 42.4507 10.083 42.546 10.237C42.6487 10.391 42.722 10.5487 42.766 10.71L42.535 10.677L42.568 9.258H43.393V14.648C43.393 15.11 43.327 15.517 43.195 15.869C43.063 16.2283 42.8687 16.529 42.612 16.771C42.3627 17.0203 42.062 17.2073 41.71 17.332C41.3654 17.464 40.9804 17.53 40.555 17.53ZM40.566 14.318C40.9547 14.318 41.2994 14.2263 41.6 14.043C41.908 13.8523 42.15 13.592 42.326 13.262C42.502 12.932 42.59 12.5507 42.59 12.118C42.59 11.6927 42.502 11.315 42.326 10.985C42.1574 10.655 41.919 10.3947 41.611 10.204C41.303 10.0133 40.9547 9.918 40.566 9.918C40.17 9.918 39.818 10.0133 39.51 10.204C39.2094 10.3947 38.971 10.655 38.795 10.985C38.619 11.315 38.531 11.6927 38.531 12.118C38.531 12.536 38.6154 12.9137 38.784 13.251C38.96 13.581 39.1984 13.8413 39.499 14.032C39.807 14.2227 40.1627 14.318 40.566 14.318ZM47.2771 15.11C46.8371 15.11 46.4631 15.022 46.1551 14.846C45.8544 14.6627 45.6234 14.3987 45.4621 14.054C45.3081 13.7093 45.2311 13.2803 45.2311 12.767V9.258H46.0671V12.602C46.0671 12.9907 46.1184 13.317 46.2211 13.581C46.3311 13.8377 46.4924 14.032 46.7051 14.164C46.9251 14.296 47.1927 14.362 47.5081 14.362C47.7501 14.362 47.9737 14.3217 48.1791 14.241C48.3844 14.153 48.5641 14.0357 48.7181 13.889C48.8721 13.7423 48.9931 13.57 49.0811 13.372C49.1691 13.174 49.2131 12.965 49.2131 12.745V9.258H50.0381V15H49.2241L49.1911 13.79L49.3231 13.724C49.2351 13.9807 49.0884 14.2153 48.8831 14.428C48.6777 14.6333 48.4321 14.7983 48.1461 14.923C47.8674 15.0477 47.5777 15.11 47.2771 15.11ZM51.9744 15V9.258H52.7994L52.8214 10.787L52.7334 10.578C52.8141 10.3213 52.9424 10.083 53.1184 9.863C53.3017 9.643 53.5181 9.467 53.7674 9.335C54.0167 9.203 54.2917 9.137 54.5924 9.137C54.7171 9.137 54.8344 9.148 54.9444 9.17C55.0544 9.18467 55.1461 9.20667 55.2194 9.236L54.9884 10.16C54.8931 10.116 54.7941 10.0867 54.6914 10.072C54.5961 10.05 54.5044 10.039 54.4164 10.039C54.1671 10.039 53.9434 10.083 53.7454 10.171C53.5474 10.259 53.3787 10.3837 53.2394 10.545C53.1001 10.699 52.9937 10.8787 52.9204 11.084C52.8471 11.2893 52.8104 11.5093 52.8104 11.744V15H51.9744ZM58.6909 15.11C58.1189 15.11 57.6092 14.9853 57.1619 14.736C56.7219 14.4867 56.3772 14.1383 56.1279 13.691C55.8785 13.2437 55.7539 12.7303 55.7539 12.151C55.7539 11.7037 55.8235 11.3003 55.9629 10.941C56.1022 10.5743 56.2965 10.2553 56.5459 9.984C56.8025 9.71267 57.1069 9.50367 57.4589 9.357C57.8109 9.203 58.1922 9.126 58.6029 9.126C58.9915 9.126 59.3435 9.19567 59.6589 9.335C59.9815 9.47433 60.2565 9.66867 60.4839 9.918C60.7185 10.16 60.8945 10.4497 61.0119 10.787C61.1292 11.1243 61.1805 11.4947 61.1659 11.898L61.1549 12.283H56.3699L56.2489 11.59H60.5279L60.3299 11.777V11.513C60.3152 11.249 60.2382 10.996 60.0989 10.754C59.9595 10.5047 59.7615 10.303 59.5049 10.149C59.2555 9.995 58.9549 9.918 58.6029 9.918C58.1922 9.918 57.8365 10.0023 57.5359 10.171C57.2352 10.3323 57.0042 10.5743 56.8429 10.897C56.6815 11.2197 56.6009 11.6193 56.6009 12.096C56.6009 12.5507 56.6889 12.9467 56.8649 13.284C57.0409 13.614 57.2902 13.8707 57.6129 14.054C57.9429 14.2373 58.3389 14.329 58.8009 14.329C59.0722 14.329 59.3399 14.285 59.6039 14.197C59.8752 14.1017 60.1722 13.9183 60.4949 13.647L60.9239 14.241C60.7552 14.4097 60.5535 14.56 60.3189 14.692C60.0842 14.8167 59.8275 14.9193 59.5489 15C59.2702 15.0733 58.9842 15.11 58.6909 15.11ZM68.6546 15.11C68.266 15.11 67.8993 15.055 67.5546 14.945C67.21 14.835 66.8946 14.67 66.6086 14.45C66.3226 14.23 66.0696 13.9587 65.8496 13.636L66.4436 12.976C66.7883 13.4673 67.1403 13.812 67.4996 14.01C67.8663 14.208 68.277 14.307 68.7316 14.307C69.0616 14.307 69.3623 14.252 69.6336 14.142C69.905 14.032 70.1176 13.878 70.2716 13.68C70.4256 13.482 70.5026 13.2547 70.5026 12.998C70.5026 12.8293 70.4733 12.679 70.4146 12.547C70.3633 12.415 70.2826 12.2977 70.1726 12.195C70.0626 12.0923 69.927 12.0007 69.7656 11.92C69.6043 11.8393 69.4173 11.766 69.2046 11.7C68.9993 11.634 68.7683 11.568 68.5116 11.502C68.1376 11.414 67.8076 11.3113 67.5216 11.194C67.243 11.0693 67.0046 10.919 66.8066 10.743C66.616 10.567 66.4693 10.3653 66.3666 10.138C66.2713 9.90333 66.2236 9.62833 66.2236 9.313C66.2236 9.01233 66.286 8.73367 66.4106 8.477C66.5426 8.22033 66.7223 8.00033 66.9496 7.817C67.177 7.62633 67.4446 7.47967 67.7526 7.377C68.0606 7.27433 68.3906 7.223 68.7426 7.223C69.1386 7.223 69.4906 7.278 69.7986 7.388C70.114 7.49067 70.3926 7.64467 70.6346 7.85C70.8766 8.05533 71.0856 8.301 71.2616 8.587L70.6566 9.181C70.5026 8.939 70.3266 8.73 70.1286 8.554C69.938 8.378 69.7253 8.246 69.4906 8.158C69.2633 8.06267 69.0103 8.015 68.7316 8.015C68.409 8.015 68.123 8.07 67.8736 8.18C67.6316 8.29 67.441 8.444 67.3016 8.642C67.1623 8.83267 67.0926 9.05267 67.0926 9.302C67.0926 9.48533 67.1256 9.65033 67.1916 9.797C67.2576 9.93633 67.3603 10.061 67.4996 10.171C67.6463 10.2737 67.8333 10.369 68.0606 10.457C68.2953 10.5377 68.574 10.6147 68.8966 10.688C69.278 10.776 69.619 10.8823 69.9196 11.007C70.2276 11.1317 70.488 11.282 70.7006 11.458C70.9206 11.6267 71.0856 11.8247 71.1956 12.052C71.313 12.2793 71.3716 12.5397 71.3716 12.833C71.3716 13.2877 71.258 13.6873 71.0306 14.032C70.8033 14.3693 70.4843 14.6333 70.0736 14.824C69.6703 15.0147 69.1973 15.11 68.6546 15.11ZM73.103 15V6.86H73.928V10.512L73.763 10.677C73.8437 10.3763 73.994 10.1123 74.214 9.885C74.434 9.65033 74.6907 9.467 74.984 9.335C75.2847 9.203 75.589 9.137 75.897 9.137C76.337 9.137 76.7037 9.22133 76.997 9.39C77.2903 9.55867 77.5067 9.819 77.646 10.171C77.7927 10.523 77.866 10.9703 77.866 11.513V15H77.03V11.557C77.03 11.1757 76.9787 10.864 76.876 10.622C76.7807 10.3727 76.6303 10.1893 76.425 10.072C76.2197 9.95467 75.963 9.89967 75.655 9.907C75.413 9.907 75.1857 9.951 74.973 10.039C74.7603 10.1197 74.577 10.2333 74.423 10.38C74.269 10.5267 74.148 10.6953 74.06 10.886C73.972 11.0767 73.928 11.282 73.928 11.502V15H73.521C73.4697 15 73.411 15 73.345 15C73.279 15 73.1983 15 73.103 15ZM82.3119 15.11C81.7399 15.11 81.2302 14.9817 80.7829 14.725C80.3429 14.4683 79.9946 14.1127 79.7379 13.658C79.4886 13.2033 79.3639 12.6863 79.3639 12.107C79.3639 11.535 79.4886 11.0253 79.7379 10.578C79.9946 10.1307 80.3429 9.77867 80.7829 9.522C81.2302 9.26533 81.7399 9.137 82.3119 9.137C82.8766 9.137 83.3789 9.26533 83.8189 9.522C84.2662 9.77867 84.6146 10.1307 84.8639 10.578C85.1206 11.0253 85.2489 11.535 85.2489 12.107C85.2489 12.6863 85.1206 13.2033 84.8639 13.658C84.6146 14.1127 84.2662 14.4683 83.8189 14.725C83.3789 14.9817 82.8766 15.11 82.3119 15.11ZM82.3119 14.329C82.7152 14.329 83.0746 14.2337 83.3899 14.043C83.7052 13.845 83.9509 13.581 84.1269 13.251C84.3029 12.9137 84.3909 12.5323 84.3909 12.107C84.3909 11.6817 84.3029 11.304 84.1269 10.974C83.9509 10.644 83.7052 10.3873 83.3899 10.204C83.0746 10.0133 82.7152 9.918 82.3119 9.918C81.9086 9.918 81.5456 10.0133 81.2229 10.204C80.9076 10.3873 80.6582 10.6477 80.4749 10.985C80.2989 11.315 80.2146 11.689 80.2219 12.107C80.2146 12.5323 80.2989 12.9137 80.4749 13.251C80.6582 13.581 80.9076 13.845 81.2229 14.043C81.5456 14.2337 81.9086 14.329 82.3119 14.329ZM86.7825 15V9.258H87.6075L87.6295 10.787L87.5415 10.578C87.6222 10.3213 87.7505 10.083 87.9265 9.863C88.1099 9.643 88.3262 9.467 88.5755 9.335C88.8249 9.203 89.0999 9.137 89.4005 9.137C89.5252 9.137 89.6425 9.148 89.7525 9.17C89.8625 9.18467 89.9542 9.20667 90.0275 9.236L89.7965 10.16C89.7012 10.116 89.6022 10.0867 89.4995 10.072C89.4042 10.05 89.3125 10.039 89.2245 10.039C88.9752 10.039 88.7515 10.083 88.5535 10.171C88.3555 10.259 88.1869 10.3837 88.0475 10.545C87.9082 10.699 87.8019 10.8787 87.7285 11.084C87.6552 11.2893 87.6185 11.5093 87.6185 11.744V15H86.7825ZM92.2229 15V7.751H93.0479V15H92.2229ZM90.9249 10.05V9.258H94.4999V10.05H90.9249ZM98.2092 15.11C97.6665 15.11 97.1825 14.9817 96.7572 14.725C96.3319 14.461 95.9945 14.1053 95.7452 13.658C95.5032 13.2033 95.3822 12.69 95.3822 12.118C95.3822 11.546 95.5032 11.0363 95.7452 10.589C95.9945 10.1343 96.3319 9.77867 96.7572 9.522C97.1825 9.26533 97.6702 9.137 98.2202 9.137C98.7115 9.137 99.1589 9.236 99.5622 9.434C99.9655 9.62467 100.288 9.89233 100.53 10.237L100.046 10.831C99.9069 10.6477 99.7382 10.4863 99.5402 10.347C99.3495 10.2077 99.1405 10.1013 98.9132 10.028C98.6932 9.94733 98.4732 9.907 98.2532 9.907C97.8645 9.907 97.5162 10.006 97.2082 10.204C96.9002 10.3947 96.6545 10.655 96.4712 10.985C96.2952 11.315 96.2072 11.6927 96.2072 12.118C96.2072 12.5433 96.2952 12.9247 96.4712 13.262C96.6545 13.592 96.9002 13.8523 97.2082 14.043C97.5162 14.2337 97.8609 14.329 98.2422 14.329C98.4622 14.329 98.6785 14.296 98.8912 14.23C99.1039 14.1567 99.3055 14.054 99.4962 13.922C99.6869 13.79 99.8629 13.625 100.024 13.427L100.508 14.021C100.259 14.351 99.9252 14.615 99.5072 14.813C99.0892 15.011 98.6565 15.11 98.2092 15.11ZM103.944 15.11C103.504 15.11 103.13 15.022 102.822 14.846C102.522 14.6627 102.291 14.3987 102.129 14.054C101.975 13.7093 101.898 13.2803 101.898 12.767V9.258H102.734V12.602C102.734 12.9907 102.786 13.317 102.888 13.581C102.998 13.8377 103.16 14.032 103.372 14.164C103.592 14.296 103.86 14.362 104.175 14.362C104.417 14.362 104.641 14.3217 104.846 14.241C105.052 14.153 105.231 14.0357 105.385 13.889C105.539 13.7423 105.66 13.57 105.748 13.372C105.836 13.174 105.88 12.965 105.88 12.745V9.258H106.705V15H105.891L105.858 13.79L105.99 13.724C105.902 13.9807 105.756 14.2153 105.55 14.428C105.345 14.6333 105.099 14.7983 104.813 14.923C104.535 15.0477 104.245 15.11 103.944 15.11ZM109.434 15V7.751H110.259V15H109.434ZM108.136 10.05V9.258H111.711V10.05H108.136ZM115.149 15.11C114.658 15.11 114.218 15.0183 113.829 14.835C113.441 14.6517 113.133 14.4097 112.905 14.109L113.488 13.603C113.701 13.8597 113.95 14.054 114.236 14.186C114.53 14.318 114.856 14.384 115.215 14.384C115.399 14.384 115.564 14.3657 115.71 14.329C115.857 14.285 115.985 14.2227 116.095 14.142C116.205 14.0613 116.29 13.966 116.348 13.856C116.407 13.746 116.436 13.625 116.436 13.493C116.436 13.251 116.33 13.0493 116.117 12.888C116.022 12.822 115.886 12.756 115.71 12.69C115.534 12.6167 115.322 12.547 115.072 12.481C114.662 12.3637 114.321 12.2463 114.049 12.129C113.778 12.0043 113.565 11.8613 113.411 11.7C113.301 11.568 113.217 11.425 113.158 11.271C113.107 11.117 113.081 10.9483 113.081 10.765C113.081 10.5303 113.129 10.314 113.224 10.116C113.327 9.918 113.466 9.74567 113.642 9.599C113.826 9.445 114.038 9.33133 114.28 9.258C114.53 9.17733 114.797 9.137 115.083 9.137C115.355 9.137 115.622 9.17367 115.886 9.247C116.15 9.32033 116.396 9.42667 116.623 9.566C116.851 9.70533 117.045 9.87033 117.206 10.061L116.7 10.611C116.561 10.4643 116.407 10.3323 116.238 10.215C116.07 10.0977 115.89 10.006 115.699 9.94C115.516 9.874 115.325 9.841 115.127 9.841C114.951 9.841 114.786 9.863 114.632 9.907C114.486 9.951 114.357 10.0133 114.247 10.094C114.145 10.1673 114.064 10.259 114.005 10.369C113.954 10.479 113.928 10.6 113.928 10.732C113.928 10.842 113.95 10.941 113.994 11.029C114.038 11.117 114.101 11.194 114.181 11.26C114.284 11.3407 114.427 11.4177 114.61 11.491C114.801 11.557 115.036 11.6267 115.314 11.7C115.637 11.788 115.908 11.8797 116.128 11.975C116.356 12.063 116.543 12.1693 116.689 12.294C116.887 12.4407 117.027 12.6093 117.107 12.8C117.195 12.9907 117.239 13.207 117.239 13.449C117.239 13.7717 117.148 14.0577 116.964 14.307C116.788 14.5563 116.543 14.7543 116.227 14.901C115.912 15.0403 115.553 15.11 115.149 15.11Z" fill="#BF2A0A"/>
</svg>
